<svg width="20" height="20" viewBox="0 0 20 20" fill="none" xmlns="http://www.w3.org/2000/svg">
<path fill-rule="evenodd" clip-rule="evenodd" d="M17.4998 4.16671H14.1665V3.33337C14.1665 1.91671 13.0832 0.833374 11.6665 0.833374H8.33317C6.9165 0.833374 5.83317 1.91671 5.83317 3.33337V4.16671H2.49984C1.99984 4.16671 1.6665 4.50004 1.6665 5.00004C1.6665 5.50004 1.99984 5.83337 2.49984 5.83337H3.33317V16.6667C3.33317 18.0834 4.4165 19.1667 5.83317 19.1667H14.1665C15.5832 19.1667 16.6665 18.0834 16.6665 16.6667V5.83337H17.4998C17.9998 5.83337 18.3332 5.50004 18.3332 5.00004C18.3332 4.50004 17.9998 4.16671 17.4998 4.16671ZM7.49984 3.33337C7.49984 2.83337 7.83317 2.50004 8.33317 2.50004H11.6665C12.1665 2.50004 12.4998 2.83337 12.4998 3.33337V4.16671H7.49984V3.33337ZM14.1665 17.5C14.6665 17.5 14.9998 17.1667 14.9998 16.6667V5.83337H4.99984V16.6667C4.99984 17.1667 5.33317 17.5 5.83317 17.5H14.1665Z" fill="black"/>
<mask id="mask0_9_705" style="mask-type:alpha" maskUnits="userSpaceOnUse" x="1" y="0" width="18" height="20">
<path fill-rule="evenodd" clip-rule="evenodd" d="M17.4998 4.16671H14.1665V3.33337C14.1665 1.91671 13.0832 0.833374 11.6665 0.833374H8.33317C6.9165 0.833374 5.83317 1.91671 5.83317 3.33337V4.16671H2.49984C1.99984 4.16671 1.6665 4.50004 1.6665 5.00004C1.6665 5.50004 1.99984 5.83337 2.49984 5.83337H3.33317V16.6667C3.33317 18.0834 4.4165 19.1667 5.83317 19.1667H14.1665C15.5832 19.1667 16.6665 18.0834 16.6665 16.6667V5.83337H17.4998C17.9998 5.83337 18.3332 5.50004 18.3332 5.00004C18.3332 4.50004 17.9998 4.16671 17.4998 4.16671ZM7.49984 3.33337C7.49984 2.83337 7.83317 2.50004 8.33317 2.50004H11.6665C12.1665 2.50004 12.4998 2.83337 12.4998 3.33337V4.16671H7.49984V3.33337ZM14.1665 17.5C14.6665 17.5 14.9998 17.1667 14.9998 16.6667V5.83337H4.99984V16.6667C4.99984 17.1667 5.33317 17.5 5.83317 17.5H14.1665Z" fill="white"/>
</mask>
<g mask="url(#mask0_9_705)">
<rect width="20" height="20" fill="#BDBDBD"/>
</g>
</svg>
