<svg width="14" height="14" viewBox="0 0 14 14" fill="none" xmlns="http://www.w3.org/2000/svg">
<path fill-rule="evenodd" clip-rule="evenodd" d="M11.0832 1.75004H9.9165V1.16671C9.9165 0.816707 9.68317 0.583374 9.33317 0.583374C8.98317 0.583374 8.74984 0.816707 8.74984 1.16671V1.75004H5.24984V1.16671C5.24984 0.816707 5.0165 0.583374 4.6665 0.583374C4.3165 0.583374 4.08317 0.816707 4.08317 1.16671V1.75004H2.9165C1.92484 1.75004 1.1665 2.50837 1.1665 3.50004V11.6667C1.1665 12.6584 1.92484 13.4167 2.9165 13.4167H11.0832C12.0748 13.4167 12.8332 12.6584 12.8332 11.6667V3.50004C12.8332 2.50837 12.0748 1.75004 11.0832 1.75004ZM2.9165 2.91671H4.08317V3.50004C4.08317 3.85004 4.3165 4.08337 4.6665 4.08337C5.0165 4.08337 5.24984 3.85004 5.24984 3.50004V2.91671H8.74984V3.50004C8.74984 3.85004 8.98317 4.08337 9.33317 4.08337C9.68317 4.08337 9.9165 3.85004 9.9165 3.50004V2.91671H11.0832C11.4332 2.91671 11.6665 3.15004 11.6665 3.50004V5.25004H2.33317V3.50004C2.33317 3.15004 2.5665 2.91671 2.9165 2.91671ZM2.9165 12.25H11.0832C11.4332 12.25 11.6665 12.0167 11.6665 11.6667V6.41671H2.33317V11.6667C2.33317 12.0167 2.5665 12.25 2.9165 12.25Z" fill="black"/>
<mask id="mask0_11_1562" style="mask-type:alpha" maskUnits="userSpaceOnUse" x="1" y="0" width="12" height="14">
<path fill-rule="evenodd" clip-rule="evenodd" d="M11.0832 1.75004H9.9165V1.16671C9.9165 0.816707 9.68317 0.583374 9.33317 0.583374C8.98317 0.583374 8.74984 0.816707 8.74984 1.16671V1.75004H5.24984V1.16671C5.24984 0.816707 5.0165 0.583374 4.6665 0.583374C4.3165 0.583374 4.08317 0.816707 4.08317 1.16671V1.75004H2.9165C1.92484 1.75004 1.1665 2.50837 1.1665 3.50004V11.6667C1.1665 12.6584 1.92484 13.4167 2.9165 13.4167H11.0832C12.0748 13.4167 12.8332 12.6584 12.8332 11.6667V3.50004C12.8332 2.50837 12.0748 1.75004 11.0832 1.75004ZM2.9165 2.91671H4.08317V3.50004C4.08317 3.85004 4.3165 4.08337 4.6665 4.08337C5.0165 4.08337 5.24984 3.85004 5.24984 3.50004V2.91671H8.74984V3.50004C8.74984 3.85004 8.98317 4.08337 9.33317 4.08337C9.68317 4.08337 9.9165 3.85004 9.9165 3.50004V2.91671H11.0832C11.4332 2.91671 11.6665 3.15004 11.6665 3.50004V5.25004H2.33317V3.50004C2.33317 3.15004 2.5665 2.91671 2.9165 2.91671ZM2.9165 12.25H11.0832C11.4332 12.25 11.6665 12.0167 11.6665 11.6667V6.41671H2.33317V11.6667C2.33317 12.0167 2.5665 12.25 2.9165 12.25Z" fill="white"/>
</mask>
<g mask="url(#mask0_11_1562)">
<rect width="14" height="14" fill="#BABFC7"/>
</g>
</svg>
