<svg width="20" height="20" viewBox="0 0 20 20" fill="none" xmlns="http://www.w3.org/2000/svg">
<path d="M15.5832 14.4166C15.9165 14.75 15.9165 15.25 15.5832 15.5833C15.4165 15.75 15.2498 15.8333 14.9998 15.8333C14.7498 15.8333 14.5832 15.75 14.4165 15.5833L9.99984 11.1666L5.58317 15.5833C5.4165 15.75 5.24984 15.8333 4.99984 15.8333C4.74984 15.8333 4.58317 15.75 4.4165 15.5833C4.08317 15.25 4.08317 14.75 4.4165 14.4166L8.83317 9.99996L4.4165 5.58329C4.08317 5.24996 4.08317 4.74996 4.4165 4.41663C4.74984 4.08329 5.24984 4.08329 5.58317 4.41663L9.99984 8.83329L14.4165 4.41663C14.7498 4.08329 15.2498 4.08329 15.5832 4.41663C15.9165 4.74996 15.9165 5.24996 15.5832 5.58329L11.1665 9.99996L15.5832 14.4166Z" fill="black"/>
<mask id="mask0_11_1462" style="mask-type:alpha" maskUnits="userSpaceOnUse" x="4" y="4" width="12" height="12">
<path d="M15.5832 14.4166C15.9165 14.75 15.9165 15.25 15.5832 15.5833C15.4165 15.75 15.2498 15.8333 14.9998 15.8333C14.7498 15.8333 14.5832 15.75 14.4165 15.5833L9.99984 11.1666L5.58317 15.5833C5.4165 15.75 5.24984 15.8333 4.99984 15.8333C4.74984 15.8333 4.58317 15.75 4.4165 15.5833C4.08317 15.25 4.08317 14.75 4.4165 14.4166L8.83317 9.99996L4.4165 5.58329C4.08317 5.24996 4.08317 4.74996 4.4165 4.41663C4.74984 4.08329 5.24984 4.08329 5.58317 4.41663L9.99984 8.83329L14.4165 4.41663C14.7498 4.08329 15.2498 4.08329 15.5832 4.41663C15.9165 4.74996 15.9165 5.24996 15.5832 5.58329L11.1665 9.99996L15.5832 14.4166Z" fill="white"/>
</mask>
<g mask="url(#mask0_11_1462)">
<rect width="20" height="20" fill="#B4B7BD"/>
</g>
</svg>
