<svg width="18" height="18" viewBox="0 0 18 18" fill="none" xmlns="http://www.w3.org/2000/svg">
<path d="M11.775 12.975C12.075 13.275 12.075 13.725 11.775 14.025C11.625 14.175 11.475 14.25 11.25 14.25C11.025 14.25 10.875 14.175 10.725 14.025L6.225 9.525C5.925 9.225 5.925 8.775 6.225 8.475L10.725 3.975C11.025 3.675 11.475 3.675 11.775 3.975C12.075 4.275 12.075 4.725 11.775 5.025L7.8 9L11.775 12.975Z" fill="black"/>
<mask id="mask0_11_2616" style="mask-type:alpha" maskUnits="userSpaceOnUse" x="6" y="3" width="6" height="12">
<path d="M11.775 12.975C12.075 13.275 12.075 13.725 11.775 14.025C11.625 14.175 11.475 14.25 11.25 14.25C11.025 14.25 10.875 14.175 10.725 14.025L6.225 9.525C5.925 9.225 5.925 8.775 6.225 8.475L10.725 3.975C11.025 3.675 11.475 3.675 11.775 3.975C12.075 4.275 12.075 4.725 11.775 5.025L7.8 9L11.775 12.975Z" fill="white"/>
</mask>
<g mask="url(#mask0_11_2616)">
<rect width="18" height="18" fill="#B4B7BD"/>
</g>
</svg>
