<svg width="20" height="20" viewBox="0 0 20 20" fill="none" xmlns="http://www.w3.org/2000/svg">
    <path fill-rule="evenodd" clip-rule="evenodd"
          d="M16.6668 2.5H3.3335C1.91683 2.5 0.833496 3.58333 0.833496 5V15C0.833496 16.4167 1.91683 17.5 3.3335 17.5H16.6668C18.0835 17.5 19.1668 16.4167 19.1668 15V5C19.1668 3.58333 18.0835 2.5 16.6668 2.5ZM3.3335 4.16667H16.6668C17.0002 4.16667 17.2502 4.33333 17.4168 4.66667L10.0002 9.83333L2.5835 4.66667C2.75016 4.33333 3.00016 4.16667 3.3335 4.16667ZM3.3335 15.8333H16.6668C17.1668 15.8333 17.5002 15.5 17.5002 15V6.58333L10.5002 11.5C10.3335 11.5833 10.1668 11.6667 10.0002 11.6667C9.8335 11.6667 9.66683 11.5833 9.50016 11.5L2.50016 6.58333V15C2.50016 15.5 2.8335 15.8333 3.3335 15.8333Z"
          fill="black"/>
    <mask id="mask0_9_707" style="mask-type:alpha" maskUnits="userSpaceOnUse" x="0" y="2" width="20" height="16">
        <path fill-rule="evenodd" clip-rule="evenodd"
              d="M16.6668 2.5H3.3335C1.91683 2.5 0.833496 3.58333 0.833496 5V15C0.833496 16.4167 1.91683 17.5 3.3335 17.5H16.6668C18.0835 17.5 19.1668 16.4167 19.1668 15V5C19.1668 3.58333 18.0835 2.5 16.6668 2.5ZM3.3335 4.16667H16.6668C17.0002 4.16667 17.2502 4.33333 17.4168 4.66667L10.0002 9.83333L2.5835 4.66667C2.75016 4.33333 3.00016 4.16667 3.3335 4.16667ZM3.3335 15.8333H16.6668C17.1668 15.8333 17.5002 15.5 17.5002 15V6.58333L10.5002 11.5C10.3335 11.5833 10.1668 11.6667 10.0002 11.6667C9.8335 11.6667 9.66683 11.5833 9.50016 11.5L2.50016 6.58333V15C2.50016 15.5 2.8335 15.8333 3.3335 15.8333Z"
              fill="white"/>
    </mask>
    <g mask="url(#mask0_9_707)">
        <rect width="20" height="20" fill="#BDBDBD"/>
    </g>
</svg>
