<svg width="20" height="20" viewBox="0 0 20 20" fill="none" xmlns="http://www.w3.org/2000/svg">
<path fill-rule="evenodd" clip-rule="evenodd" d="M6.66667 5.83333C7.58333 5.83333 8.33333 5.08333 8.33333 4.16667C8.33333 3.25 7.58333 2.5 6.66667 2.5C5.75 2.5 5 3.25 5 4.16667C5 5.08333 5.75 5.83333 6.66667 5.83333ZM8.33333 10C8.33333 10.9167 7.58333 11.6667 6.66667 11.6667C5.75 11.6667 5 10.9167 5 10C5 9.08333 5.75 8.33333 6.66667 8.33333C7.58333 8.33333 8.33333 9.08333 8.33333 10ZM5 15.8333C5 14.9167 5.75 14.1667 6.66667 14.1667C7.58333 14.1667 8.33333 14.9167 8.33333 15.8333C8.33333 16.75 7.58333 17.5 6.66667 17.5C5.75 17.5 5 16.75 5 15.8333Z" fill="#B4B7BD"/>
<mask id="mask0_10_925" style="mask-type:alpha" maskUnits="userSpaceOnUse" x="11" y="2" width="4" height="16">
<path fill-rule="evenodd" clip-rule="evenodd" d="M13.3332 5.83333C14.2498 5.83333 14.9998 5.08333 14.9998 4.16667C14.9998 3.25 14.2498 2.5 13.3332 2.5C12.4165 2.5 11.6665 3.25 11.6665 4.16667C11.6665 5.08333 12.4165 5.83333 13.3332 5.83333ZM14.9998 10C14.9998 10.9167 14.2498 11.6667 13.3332 11.6667C12.4165 11.6667 11.6665 10.9167 11.6665 10C11.6665 9.08333 12.4165 8.33333 13.3332 8.33333C14.2498 8.33333 14.9998 9.08333 14.9998 10ZM11.6665 15.8333C11.6665 14.9167 12.4165 14.1667 13.3332 14.1667C14.2498 14.1667 14.9998 14.9167 14.9998 15.8333C14.9998 16.75 14.2498 17.5 13.3332 17.5C12.4165 17.5 11.6665 16.75 11.6665 15.8333Z" fill="white"/>
</mask>
<g mask="url(#mask0_10_925)">
<rect width="20" height="20" fill="#B4B7BD"/>
</g>
</svg>
