<svg width="20" height="20" viewBox="0 0 20 20" fill="none" xmlns="http://www.w3.org/2000/svg">
<path d="M13.4761 17.8325C12.5551 18.1663 11.6341 18.3333 10.7132 18.3333C7.28039 18.3333 4.01508 16.163 2.84292 12.7407C2.67547 12.3233 2.92664 11.8225 3.34527 11.6555C3.7639 11.4886 4.26626 11.739 4.43371 12.1564C5.6896 15.6622 9.45726 17.4986 12.9738 16.2465C16.4902 14.9944 18.3322 11.2382 17.0763 7.73236C16.4902 6.06292 15.2344 4.72737 13.6436 3.89265C12.0528 3.1414 10.2108 3.05793 8.53628 3.64223C7.61529 3.97612 6.69431 4.47695 6.0245 5.2282L3.59645 7.48194H6.52686C7.02921 7.48194 7.36412 7.81583 7.36412 8.31666C7.36412 8.81749 7.02921 9.15138 6.52686 9.15138H1.5033C1.41958 9.15138 1.33585 9.15138 1.33585 9.15138H1.25213L1.1684 9.06791C1.08467 9.06791 1.08467 8.98444 1.00095 8.98444C1.00095 8.98444 1.00095 8.90096 0.917222 8.90096C0.917222 8.81749 0.833496 8.81749 0.833496 8.73402C0.833496 8.65055 0.833496 8.56708 0.833496 8.56708V8.4836V3.30834C0.833496 2.80751 1.1684 2.47363 1.67076 2.47363C2.17311 2.47363 2.50801 2.80751 2.50801 3.30834V6.39681L5.01979 4.05959C5.85705 3.22487 6.94549 2.5571 8.11765 2.13974C10.2108 1.38849 12.4714 1.55543 14.4808 2.47363C16.4902 3.47529 17.9973 5.14473 18.7508 7.23153C20.1742 11.5721 17.8299 16.33 13.4761 17.8325Z" fill="black"/>
<mask id="mask0_14_1409" style="mask-type:alpha" maskUnits="userSpaceOnUse" x="0" y="1" width="20" height="18">
<path d="M13.4761 17.8325C12.5551 18.1663 11.6341 18.3333 10.7132 18.3333C7.28039 18.3333 4.01508 16.163 2.84292 12.7407C2.67547 12.3233 2.92664 11.8225 3.34527 11.6555C3.7639 11.4886 4.26626 11.739 4.43371 12.1564C5.6896 15.6622 9.45726 17.4986 12.9738 16.2465C16.4902 14.9944 18.3322 11.2382 17.0763 7.73236C16.4902 6.06292 15.2344 4.72737 13.6436 3.89265C12.0528 3.1414 10.2108 3.05793 8.53628 3.64223C7.61529 3.97612 6.69431 4.47695 6.0245 5.2282L3.59645 7.48194H6.52686C7.02921 7.48194 7.36412 7.81583 7.36412 8.31666C7.36412 8.81749 7.02921 9.15138 6.52686 9.15138H1.5033C1.41958 9.15138 1.33585 9.15138 1.33585 9.15138H1.25213L1.1684 9.06791C1.08467 9.06791 1.08467 8.98444 1.00095 8.98444C1.00095 8.98444 1.00095 8.90096 0.917222 8.90096C0.917222 8.81749 0.833496 8.81749 0.833496 8.73402C0.833496 8.65055 0.833496 8.56708 0.833496 8.56708V8.4836V3.30834C0.833496 2.80751 1.1684 2.47363 1.67076 2.47363C2.17311 2.47363 2.50801 2.80751 2.50801 3.30834V6.39681L5.01979 4.05959C5.85705 3.22487 6.94549 2.5571 8.11765 2.13974C10.2108 1.38849 12.4714 1.55543 14.4808 2.47363C16.4902 3.47529 17.9973 5.14473 18.7508 7.23153C20.1742 11.5721 17.8299 16.33 13.4761 17.8325Z" fill="white"/>
</mask>
<g mask="url(#mask0_14_1409)">
<rect width="20" height="20" fill="#B4B7BD"/>
</g>
</svg>
