<svg width="17" height="17" viewBox="0 0 17 17" fill="none" xmlns="http://www.w3.org/2000/svg">
<path fill-rule="evenodd" clip-rule="evenodd" d="M15.1054 6.43205C15.3771 6.4986 15.5808 6.63172 15.6488 6.89796C15.7167 7.09763 15.6488 7.36387 15.445 7.49699L12.3208 10.4921L13.0679 14.7519C13.1358 15.0181 13 15.2844 12.7963 15.4175C12.6604 15.484 12.5246 15.5506 12.3888 15.5506H12.0492L8.17794 13.5538L4.30669 15.5506C4.03502 15.6837 3.76336 15.6172 3.55961 15.484C3.35586 15.3509 3.22002 15.0847 3.28794 14.8185L4.03502 10.5587L0.910859 7.56355C0.707109 7.43043 0.639193 7.16419 0.707109 6.89796C0.842943 6.63172 1.04669 6.43205 1.31836 6.43205L5.59711 5.76646L7.56669 1.9726C7.77044 1.50669 8.58544 1.50669 8.78919 1.9726L10.7588 5.83302L15.1054 6.43205ZM10.8946 10.4256C10.8946 10.2259 10.9625 10.0262 11.0984 9.82655L13.5433 7.49699L10.2154 7.03108C9.94377 7.03108 9.74002 6.89796 9.6721 6.69828L8.17794 3.76969L6.68377 6.76484C6.54794 6.89796 6.34419 7.09763 6.14044 7.09763L2.81252 7.56355L5.25752 9.82655C5.39336 10.0262 5.46127 10.2259 5.46127 10.4256L4.85002 13.687L7.83835 12.1561C8.0421 12.023 8.24585 12.023 8.4496 12.1561L11.4379 13.687L10.8946 10.4256Z" fill="black"/>
<mask id="mask0_11_1461" style="mask-type:alpha" maskUnits="userSpaceOnUse" x="0" y="1" width="16" height="15">
<path fill-rule="evenodd" clip-rule="evenodd" d="M15.1054 6.43205C15.3771 6.4986 15.5808 6.63172 15.6488 6.89796C15.7167 7.09763 15.6488 7.36387 15.445 7.49699L12.3208 10.4921L13.0679 14.7519C13.1358 15.0181 13 15.2844 12.7963 15.4175C12.6604 15.484 12.5246 15.5506 12.3888 15.5506H12.0492L8.17794 13.5538L4.30669 15.5506C4.03502 15.6837 3.76336 15.6172 3.55961 15.484C3.35586 15.3509 3.22002 15.0847 3.28794 14.8185L4.03502 10.5587L0.910859 7.56355C0.707109 7.43043 0.639193 7.16419 0.707109 6.89796C0.842943 6.63172 1.04669 6.43205 1.31836 6.43205L5.59711 5.76646L7.56669 1.9726C7.77044 1.50669 8.58544 1.50669 8.78919 1.9726L10.7588 5.83302L15.1054 6.43205ZM10.8946 10.4256C10.8946 10.2259 10.9625 10.0262 11.0984 9.82655L13.5433 7.49699L10.2154 7.03108C9.94377 7.03108 9.74002 6.89796 9.6721 6.69828L8.17794 3.76969L6.68377 6.76484C6.54794 6.89796 6.34419 7.09763 6.14044 7.09763L2.81252 7.56355L5.25752 9.82655C5.39336 10.0262 5.46127 10.2259 5.46127 10.4256L4.85002 13.687L7.83835 12.1561C8.0421 12.023 8.24585 12.023 8.4496 12.1561L11.4379 13.687L10.8946 10.4256Z" fill="white"/>
</mask>
<g mask="url(#mask0_11_1461)">
<rect y="0.956543" width="16.3556" height="16" fill="#D0D2D6"/>
</g>
</svg>
