<svg width="18" height="18" viewBox="0 0 18 18" fill="none" xmlns="http://www.w3.org/2000/svg">
    <path fill-rule="evenodd" clip-rule="evenodd"
          d="M12.9 11.85L16.275 15.225C16.575 15.525 16.575 15.975 16.275 16.275C16.125 16.425 15.9 16.5 15.75 16.5C15.6 16.5 15.375 16.425 15.225 16.275L11.85 12.9C10.725 13.725 9.375 14.25 7.875 14.25C4.35 14.25 1.5 11.4 1.5 7.875C1.5 4.35 4.35 1.5 7.875 1.5C11.4 1.5 14.25 4.35 14.25 7.875C14.25 9.375 13.725 10.8 12.9 11.85ZM7.875 3C5.175 3 3 5.175 3 7.875C3 10.575 5.175 12.75 7.875 12.75C9.225 12.75 10.425 12.225 11.325 11.325C12.225 10.425 12.75 9.225 12.75 7.875C12.75 5.175 10.575 3 7.875 3Z"
          fill="black"/>
    <mask id="mask0_18_972" style="mask-type:alpha" maskUnits="userSpaceOnUse" x="1" y="1" width="16" height="16">
        <path fill-rule="evenodd" clip-rule="evenodd"
              d="M12.9 11.85L16.275 15.225C16.575 15.525 16.575 15.975 16.275 16.275C16.125 16.425 15.9 16.5 15.75 16.5C15.6 16.5 15.375 16.425 15.225 16.275L11.85 12.9C10.725 13.725 9.375 14.25 7.875 14.25C4.35 14.25 1.5 11.4 1.5 7.875C1.5 4.35 4.35 1.5 7.875 1.5C11.4 1.5 14.25 4.35 14.25 7.875C14.25 9.375 13.725 10.8 12.9 11.85ZM7.875 3C5.175 3 3 5.175 3 7.875C3 10.575 5.175 12.75 7.875 12.75C9.225 12.75 10.425 12.225 11.325 11.325C12.225 10.425 12.75 9.225 12.75 7.875C12.75 5.175 10.575 3 7.875 3Z"
              fill="white"/>
    </mask>
    <g mask="url(#mask0_18_972)">
        <rect width="18" height="18" fill="#B4B7BD"/>
    </g>
</svg>
