<svg width="20" height="20" viewBox="0 0 20 20" fill="none" xmlns="http://www.w3.org/2000/svg">
    <path fill-rule="evenodd" clip-rule="evenodd"
          d="M18.4713 6.84447C18.8035 6.92767 19.0526 7.09407 19.1357 7.42686C19.2187 7.67646 19.1357 8.00925 18.8865 8.17565L15.0662 11.9196L15.9798 17.2443C16.0628 17.5771 15.8967 17.9099 15.6476 18.0763C15.4815 18.1595 15.3154 18.2427 15.1493 18.2427H14.734L10.0002 15.7467L5.2663 18.2427C4.9341 18.4091 4.6019 18.3259 4.35275 18.1595C4.1036 17.9931 3.9375 17.6603 4.02055 17.3275L4.9341 12.0028L1.11379 8.25885C0.86464 8.09245 0.78159 7.75965 0.86464 7.42686C1.03074 7.09407 1.27989 6.84447 1.61209 6.84447L6.84425 6.01248L9.25271 1.27017C9.50186 0.687777 10.4985 0.687777 10.7476 1.27017L13.1561 6.09568L18.4713 6.84447ZM13.3222 11.8364C13.3222 11.5868 13.4052 11.3372 13.5713 11.0876L16.5611 8.17565L12.4917 7.59326C12.1595 7.59326 11.9103 7.42686 11.8273 7.17726L10.0002 3.51653L8.17306 7.26046C8.00696 7.42686 7.75781 7.67646 7.50866 7.67646L3.4392 8.25885L6.429 11.0876C6.5951 11.3372 6.67815 11.5868 6.67815 11.8364L5.9307 15.9131L9.58491 13.9995C9.83406 13.8331 10.0832 13.8331 10.3324 13.9995L13.9866 15.9131L13.3222 11.8364Z"
          fill="black"/>
    <mask id="mask0_9_706" style="mask-type:alpha" maskUnits="userSpaceOnUse" x="0" y="0" width="20" height="19">
        <path fill-rule="evenodd" clip-rule="evenodd"
              d="M18.4713 6.84447C18.8035 6.92767 19.0526 7.09407 19.1357 7.42686C19.2187 7.67646 19.1357 8.00925 18.8865 8.17565L15.0662 11.9196L15.9798 17.2443C16.0628 17.5771 15.8967 17.9099 15.6476 18.0763C15.4815 18.1595 15.3154 18.2427 15.1493 18.2427H14.734L10.0002 15.7467L5.2663 18.2427C4.9341 18.4091 4.6019 18.3259 4.35275 18.1595C4.1036 17.9931 3.9375 17.6603 4.02055 17.3275L4.9341 12.0028L1.11379 8.25885C0.86464 8.09245 0.78159 7.75965 0.86464 7.42686C1.03074 7.09407 1.27989 6.84447 1.61209 6.84447L6.84425 6.01248L9.25271 1.27017C9.50186 0.687777 10.4985 0.687777 10.7476 1.27017L13.1561 6.09568L18.4713 6.84447ZM13.3222 11.8364C13.3222 11.5868 13.4052 11.3372 13.5713 11.0876L16.5611 8.17565L12.4917 7.59326C12.1595 7.59326 11.9103 7.42686 11.8273 7.17726L10.0002 3.51653L8.17306 7.26046C8.00696 7.42686 7.75781 7.67646 7.50866 7.67646L3.4392 8.25885L6.429 11.0876C6.5951 11.3372 6.67815 11.5868 6.67815 11.8364L5.9307 15.9131L9.58491 13.9995C9.83406 13.8331 10.0832 13.8331 10.3324 13.9995L13.9866 15.9131L13.3222 11.8364Z"
              fill="white"/>
    </mask>
    <g mask="url(#mask0_9_706)">
        <rect width="20" height="20" fill="#BDBDBD"/>
    </g>
</svg>
